# xmcd
#
# Track frame offsets: 
#        150
#        23612
#        46280
#        60837
#        77877
#        110002
#        127941
#        144914
#        169146
#        171966
#        191862
#        213196
#
# Disc length: 3192 seconds
#
# Revision: 0
# Processed by: cddbd v1.5.2PL0 Copyright (c) Steve Scherf et al.
# Submitted via: ExactAudioCopy v1.1
#
DISCID=9c0c760c
DTITLE=Syaharani - Magma
DYEAR=2002
DGENRE=Pop Trip-hop
TTITLE0=Selamanya
TTITLE1=Sunya Ruri
TTITLE2=Sendiri Kuingin
TTITLE3=Berhenti Disini
TTITLE4=Memberi Cinta Adalah
TTITLE5=Bersama Diriku
TTITLE6=Beneath
TTITLE7=Sukma
TTITLE8=Intro Selamat Menempuh Hidup Baru
TTITLE9=Selamat Menempuh Hidup Baru
TTITLE10=Teater
TTITLE11=Try No Tenderness
EXTD=
EXTT0=
EXTT1=
EXTT2=
EXTT3=
EXTT4=
EXTT5=
EXTT6=
EXTT7=
EXTT8=
EXTT9=
EXTT10=
EXTT11=
PLAYORDER=
